<svg width="140" height="134" viewBox="0 0 140 134" fill="none" xmlns="http://www.w3.org/2000/svg">
<path fill-rule="evenodd" clip-rule="evenodd" d="M68.3887 0.33924C68.3887 0.532946 67.3146 0.67848 65.8823 0.67848H63.376V2.37468C63.376 3.30759 63.2148 4.07088 63.0179 4.07088C62.8106 4.07088 62.6598 5.15306 62.6598 6.63927C62.6598 9.28059 62.2581 10.1772 61.074 10.1772C60.7647 10.1772 60.5115 10.3299 60.5115 10.5164C60.5115 10.7102 59.4373 10.8557 58.0051 10.8557C56.5729 10.8557 55.4987 10.7102 55.4987 10.5164C55.4987 10.3299 55.1765 10.1772 54.7826 10.1772C54.3053 10.1772 54.0665 9.95093 54.0665 9.49872C54.0665 9.12556 53.9054 8.82025 53.7084 8.82025C53.5115 8.82025 53.3504 8.51493 53.3504 8.14177C53.3504 7.7686 53.1893 7.46328 52.9923 7.46328C52.7954 7.46328 52.6343 7.15797 52.6343 6.7848C52.6343 6.41164 52.4731 6.10632 52.2762 6.10632C52.0793 6.10632 51.9182 5.80101 51.9182 5.42784C51.9182 5.05468 51.757 4.74936 51.5601 4.74936C51.3632 4.74936 51.202 4.44405 51.202 4.07088C51.202 3.50537 50.9632 3.3924 49.7698 3.3924C48.9821 3.3924 48.3376 3.54506 48.3376 3.73164C48.3376 3.91822 47.8542 4.07088 47.2634 4.07088C46.6726 4.07088 46.1893 4.22354 46.1893 4.41012C46.1893 4.5967 45.7059 4.74936 45.1151 4.74936C44.5243 4.74936 44.0409 4.90202 44.0409 5.0886C44.0409 5.27519 43.6266 5.42784 43.1204 5.42784C42.6137 5.42784 41.9692 5.64597 41.6881 5.91262C41.1095 6.46049 40.9853 8.82025 41.5345 8.82025C41.7315 8.82025 41.8926 9.12556 41.8926 9.49872C41.8926 9.87189 42.0537 10.1772 42.2506 10.1772C42.4476 10.1772 42.6087 10.8642 42.6087 11.7038C42.6087 12.5434 42.7698 13.2304 42.9667 13.2304C43.1637 13.2304 43.3248 13.7755 43.3248 14.4418C43.3248 15.6844 42.6764 16.6228 41.8181 16.6228C41.5521 16.6228 41.1023 16.9281 40.8184 17.3013C40.5345 17.6744 40.0157 17.9797 39.6651 17.9797C39.3149 17.9797 39.0281 18.1324 39.0281 18.319C39.0281 18.5056 38.3836 18.6582 37.5959 18.6582C36.8082 18.6582 36.1637 18.5056 36.1637 18.319C36.1637 18.1324 35.9105 17.9797 35.6012 17.9797C34.9406 17.9797 34.0153 17.1825 34.0153 16.6136C34.0153 16.3951 33.532 15.7886 32.9412 15.2658C32.3504 14.743 31.867 14.071 31.867 13.7728C31.867 13.4743 31.7059 13.2304 31.509 13.2304C31.312 13.2304 31.1509 13.0014 31.1509 12.7215C31.1509 12.4389 30.8326 12.2126 30.4348 12.2126C30.037 12.2126 29.7187 12.4389 29.7187 12.7215C29.7187 13.0014 29.4319 13.2304 29.0817 13.2304C28.7311 13.2304 28.2123 13.5357 27.9284 13.9088C27.6444 14.282 27.1958 14.5873 26.9308 14.5873C26.6662 14.5873 25.6651 15.3506 24.7059 16.2835C23.7248 17.2378 22.6388 17.9797 22.2228 17.9797C21.7892 17.9797 21.4834 18.2002 21.4834 18.5127C21.4834 19.0419 22.2951 20.0152 22.7366 20.0152C23.1233 20.0152 23.9898 20.96 23.9898 21.3813C23.9898 21.5998 24.4731 22.2063 25.0639 22.7291C25.6547 23.2519 26.1381 23.9239 26.1381 24.2221C26.1381 24.5206 26.2992 24.7645 26.4962 24.7645C26.6931 24.7645 26.8542 25.0698 26.8542 25.443C26.8542 25.8162 26.6931 26.1215 26.4962 26.1215C26.2992 26.1215 26.1381 26.6609 26.1381 27.32C26.1381 28.2356 25.8449 28.7967 24.8967 29.6947C23.7549 30.7769 23.4828 30.8709 21.4952 30.8709C20.2939 30.8709 19.335 30.7202 19.335 30.5316C19.335 30.345 19.0128 30.1924 18.6189 30.1924C18.2251 30.1924 17.9028 30.0397 17.9028 29.8531C17.9028 29.6666 17.616 29.5139 17.2658 29.5139C16.9153 29.5139 16.3965 29.2086 16.1125 28.8354C15.8286 28.4623 15.3098 28.1569 14.9592 28.1569C14.6091 28.1569 14.3223 28.0043 14.3223 27.8177C14.3223 27.3139 13.2721 27.4072 12.6856 27.9632C12.4041 28.2295 12.1739 28.6539 12.1739 28.906C12.1739 29.158 11.8517 29.5841 11.4578 29.8531C11.0639 30.1222 10.7417 30.6137 10.7417 30.9458C10.7417 31.2776 10.5806 31.5493 10.3836 31.5493C10.1867 31.5493 10.0256 31.8211 10.0256 32.1528C10.0256 32.485 9.70332 32.9765 9.30946 33.2455C8.9156 33.5146 8.59335 34.0061 8.59335 34.3382C8.59335 34.67 8.43222 34.9417 8.23529 34.9417C7.69176 34.9417 7.80742 36.6203 8.3889 37.1709C8.66997 37.4375 9.1179 37.6557 9.38394 37.6557C9.64997 37.6557 10.0997 37.961 10.3836 38.3341C10.6676 38.7073 11.1173 39.0126 11.3833 39.0126C11.885 39.0126 12.89 39.8109 12.89 40.2091C12.89 40.3343 13.3734 40.8645 13.9642 41.3873C14.7727 42.1031 15.0384 42.6398 15.0384 43.5588C15.0384 44.2305 14.8772 44.7797 14.6803 44.7797C14.4834 44.7797 14.3223 45.085 14.3223 45.4582C14.3223 45.8313 14.1611 46.1367 13.9642 46.1367C13.7673 46.1367 13.6061 46.442 13.6061 46.8151C13.6061 47.2673 13.3673 47.4936 12.89 47.4936C12.4962 47.4936 12.1739 47.6463 12.1739 47.8329C12.1739 48.0364 10.7417 48.1721 8.59335 48.1721C6.44501 48.1721 5.01279 48.0364 5.01279 47.8329C5.01279 47.3179 3.24113 47.4275 2.66 47.9784C2.37857 48.2447 2.14834 49.008 2.14834 49.6746C2.14834 50.3409 1.98721 50.886 1.79028 50.886C1.59335 50.886 1.43222 51.6493 1.43222 52.5822C1.43222 53.5151 1.2711 54.2784 1.07417 54.2784C0.877238 54.2784 0.716112 54.8891 0.716112 55.6354C0.716112 56.3817 0.554987 56.9924 0.358056 56.9924C0.161125 56.9924 0 57.145 0 57.3316C0 57.5182 0.483376 57.6708 1.07417 57.6708C1.66496 57.6708 2.14834 57.8235 2.14834 58.0101C2.14834 58.1967 2.63171 58.3493 3.22251 58.3493C3.8133 58.3493 4.29667 58.502 4.29667 58.6885C4.29667 58.8751 4.78005 59.0278 5.37084 59.0278C5.96164 59.0278 6.44501 59.1804 6.44501 59.367C6.44501 59.5536 6.69207 59.7063 6.99391 59.7063C7.29611 59.7063 8.10174 60.2355 8.78419 60.8824C9.83545 61.8784 10.0256 62.2937 10.0256 63.5963C10.0256 64.4421 9.86445 65.1341 9.66752 65.1341C9.47059 65.1341 9.30946 65.5921 9.30946 66.1518C9.30946 66.7116 9.14834 67.1696 8.95141 67.1696C8.75448 67.1696 8.59335 67.3331 8.59335 67.5329C8.59335 68.3233 7.51095 68.8658 5.93335 68.8658C5.0332 68.8658 4.29667 69.0184 4.29667 69.205C4.29667 69.3936 3.34174 69.5442 2.14834 69.5442H0V73.9544C0 76.6683 0.137852 78.3645 0.358056 78.3645C0.554987 78.3645 0.716112 78.8225 0.716112 79.3822C0.716112 80.3752 0.759079 80.3999 2.47668 80.3999C3.54941 80.3999 4.30778 80.2344 4.41877 79.9759C4.55555 79.6556 4.70128 79.6763 5.01279 80.0607C5.3243 80.445 5.47003 80.4657 5.6068 80.1455C5.82235 79.6431 7.16113 79.5698 7.16113 80.0607C7.16113 80.2473 7.89765 80.3999 8.7978 80.3999C10.4875 80.3999 11.4578 80.9478 11.4578 81.9024C11.4578 82.1955 11.6189 82.4354 11.8159 82.4354C12.0149 82.4354 12.1739 83.3401 12.1739 84.4708C12.1739 85.6015 12.0149 86.5062 11.8159 86.5062C11.6189 86.5062 11.4578 86.7461 11.4578 87.0392C11.4578 87.7248 10.5956 88.5417 9.87197 88.5417C9.56261 88.5417 9.30946 88.6943 9.30946 88.8809C9.30946 89.0675 8.98721 89.2202 8.59335 89.2202C8.19949 89.2202 7.87724 89.3728 7.87724 89.5594C7.87724 89.746 7.55499 89.8986 7.16113 89.8986C6.76726 89.8986 6.44501 90.0513 6.44501 90.2379C6.44501 90.4245 6.19187 90.5771 5.88251 90.5771C5.09801 90.5771 3.97693 91.6634 4.56844 91.8503C4.81299 91.9276 5.01279 92.2832 5.01279 92.6407C5.01279 92.9983 5.17391 93.291 5.37084 93.291C5.56777 93.291 5.7289 93.5964 5.7289 93.9695C5.7289 94.3427 5.89003 94.648 6.08696 94.648C6.28389 94.648 6.44501 95.1487 6.44501 95.7604C6.44501 96.4836 6.69565 97.0441 7.16113 97.3619C7.55499 97.631 7.87724 98.1225 7.87724 98.4546C7.87724 98.7864 8.03836 99.0581 8.23529 99.0581C8.43222 99.0581 8.59335 99.298 8.59335 99.5911C8.59335 99.8845 8.82358 100.342 9.10501 100.609C9.69151 101.165 10.7417 101.258 10.7417 100.754C10.7417 100.568 11.0639 100.415 11.4578 100.415C11.8517 100.415 12.1739 100.262 12.1739 100.076C12.1739 99.8893 12.4962 99.7366 12.89 99.7366C13.2839 99.7366 13.6061 99.584 13.6061 99.3974C13.6061 99.2108 13.9284 99.0581 14.3223 99.0581C14.7161 99.0581 15.0384 98.9055 15.0384 98.7189C15.0384 98.5323 15.9317 98.3797 17.0238 98.3797C18.6547 98.3797 19.1667 98.5286 19.8882 99.2125C20.3716 99.6705 20.7673 100.281 20.7673 100.569C20.7673 100.858 20.9284 101.094 21.1253 101.094C21.3222 101.094 21.4834 101.704 21.4834 102.451C21.4834 103.197 21.3222 103.807 21.1253 103.807C20.9284 103.807 20.7673 104.044 20.7673 104.333C20.7673 104.622 19.6236 105.926 18.2258 107.232C15.6857 109.606 15.685 109.607 16.4355 110.224C16.8487 110.564 17.1867 111.017 17.1867 111.231C17.1867 111.695 22.3971 116.699 22.8802 116.699C23.0638 116.699 23.2815 116.889 23.3639 117.123C23.4548 117.38 24.089 116.98 24.9769 116.105C25.7815 115.312 26.6265 114.663 26.8542 114.663C27.0819 114.663 27.8876 114.053 28.6445 113.306C29.8118 112.155 30.2436 111.949 31.4903 111.949C32.7536 111.949 33.185 112.163 34.5617 113.467C35.9872 114.817 36.1637 115.154 36.1637 116.52C36.1637 117.365 36.0026 118.056 35.8056 118.056C35.6087 118.056 35.4476 118.361 35.4476 118.734C35.4476 119.107 35.2864 119.413 35.0895 119.413C34.8926 119.413 34.7315 119.871 34.7315 120.43C34.7315 120.99 34.5703 121.448 34.3734 121.448C34.1765 121.448 34.0153 121.83 34.0153 122.296C34.0153 122.763 33.8542 123.144 33.6573 123.144C33.4604 123.144 33.2992 123.45 33.2992 123.823C33.2992 124.275 33.5381 124.501 34.0153 124.501C34.4092 124.501 34.7315 124.654 34.7315 124.84C34.7315 125.027 35.0183 125.18 35.3684 125.18C35.719 125.18 36.2378 125.485 36.5217 125.858C36.8057 126.231 37.3245 126.537 37.675 126.537C38.0252 126.537 38.312 126.689 38.312 126.876C38.312 127.062 38.6343 127.215 39.0281 127.215C39.422 127.215 39.7442 127.368 39.7442 127.554C39.7442 127.741 40.0665 127.894 40.4604 127.894C40.8542 127.894 41.1765 128.046 41.1765 128.233C41.1765 128.419 41.6598 128.572 42.2506 128.572C43.086 128.572 43.3248 128.421 43.3248 127.894C43.3248 127.52 43.4859 127.215 43.6829 127.215C43.8798 127.215 44.0409 126.943 44.0409 126.612C44.0409 126.279 44.3632 125.788 44.757 125.519C45.1509 125.25 45.4731 124.792 45.4731 124.501C45.4731 124.21 45.7954 123.752 46.1893 123.483C46.5831 123.214 46.9054 122.647 46.9054 122.221C46.9054 121.674 47.1148 121.448 47.6215 121.448C48.0153 121.448 48.3376 121.295 48.3376 121.109C48.3376 120.922 48.821 120.77 49.4118 120.77C50.0026 120.77 50.4859 120.922 50.4859 121.109C50.4859 121.295 50.9693 121.448 51.5601 121.448C52.1509 121.448 52.6343 121.601 52.6343 121.787C52.6343 121.974 52.9565 122.126 53.3504 122.126C53.7442 122.126 54.0665 122.322 54.0665 122.56C54.0665 122.799 54.3887 123.214 54.7826 123.483C55.392 123.9 55.4987 124.362 55.4987 126.583C55.4987 128.34 55.6452 129.259 55.9463 129.392C56.3043 129.55 56.3043 129.629 55.9463 129.788C55.7003 129.896 55.4987 130.266 55.4987 130.607C55.4987 130.949 55.2989 131.292 55.0544 131.37C54.1807 131.646 55.7708 132.643 57.0846 132.643C57.7878 132.643 58.3632 132.796 58.3632 132.982C58.3632 133.18 59.5566 133.321 61.2276 133.321C62.8987 133.321 64.0921 133.463 64.0921 133.661C64.0921 134.282 65.1877 134.01 66.0775 133.167C66.7993 132.483 66.9565 131.998 66.9565 130.453C66.9565 129.418 67.1176 128.572 67.3146 128.572C67.5115 128.572 67.6726 128.114 67.6726 127.554C67.6726 126.995 67.8338 126.537 68.0307 126.537C68.2276 126.537 68.3887 126.297 68.3887 126.004C68.3887 124.842 69.3222 124.501 72.4971 124.501C75.2953 124.501 75.6641 124.578 76.4611 125.334C77.1368 125.974 77.3401 126.524 77.3401 127.709C77.3401 128.557 77.5013 129.251 77.6982 129.251C77.8973 129.251 78.0563 130.155 78.0563 131.286V133.321H79.4885C80.2762 133.321 80.9207 133.169 80.9207 132.982C80.9207 132.796 81.7263 132.643 82.711 132.643C83.6956 132.643 84.5013 132.49 84.5013 132.304C84.5013 132.117 85.3069 131.964 86.2916 131.964C87.2762 131.964 88.0818 131.812 88.0818 131.625C88.0818 131.439 88.5652 131.286 89.156 131.286C89.7468 131.286 90.2302 131.133 90.2302 130.947C90.2302 130.76 90.0691 130.607 89.8721 130.607C89.6634 130.607 89.5141 129.477 89.5141 127.894C89.5141 126.31 89.3648 125.18 89.156 125.18C88.9591 125.18 88.798 124.722 88.798 124.162C88.798 123.602 88.9591 123.144 89.156 123.144C89.3529 123.144 89.5141 122.832 89.5141 122.45C89.5141 121.483 91.0891 120.091 92.1834 120.091C92.6846 120.091 93.0946 119.938 93.0946 119.752C93.0946 119.565 93.8648 119.413 94.8058 119.413C96.1062 119.413 96.6408 119.575 97.0332 120.091C97.3172 120.464 97.836 120.77 98.1865 120.77C98.5847 120.77 98.8235 121.024 98.8235 121.448C98.8235 121.821 98.9846 122.126 99.1816 122.126C99.3785 122.126 99.5396 122.322 99.5396 122.56C99.5396 122.799 99.8619 123.214 100.256 123.483C100.65 123.752 100.972 124.244 100.972 124.576C100.972 124.908 101.133 125.18 101.33 125.18C101.527 125.18 101.688 125.485 101.688 125.858C101.688 126.231 101.849 126.537 102.046 126.537C102.243 126.537 102.404 126.384 102.404 126.197C102.404 126.011 102.726 125.858 103.12 125.858C103.514 125.858 103.836 125.705 103.836 125.519C103.836 125.332 104.123 125.18 104.473 125.18C104.824 125.18 105.343 124.874 105.627 124.501C105.911 124.128 106.36 123.823 106.626 123.823C107.204 123.823 108.133 123.001 108.133 122.49C108.133 122.29 108.42 122.126 108.77 122.126C109.121 122.126 109.639 121.821 109.923 121.448C110.207 121.075 110.657 120.77 110.923 120.77C111.189 120.77 111.637 120.551 111.918 120.285C112.505 119.729 112.603 118.734 112.072 118.734C111.875 118.734 111.714 118.462 111.714 118.131C111.714 117.798 111.391 117.307 110.997 117.038C110.577 116.751 110.281 116.16 110.281 115.606C110.281 115.088 110.12 114.663 109.923 114.663C109.726 114.663 109.565 114.358 109.565 113.985C109.565 113.612 109.404 113.306 109.207 113.306C109.01 113.306 108.849 112.768 108.849 112.11C108.849 111.146 109.16 110.619 110.451 109.396C112.021 107.909 112.1 107.878 114.39 107.878C115.709 107.878 116.726 108.026 116.726 108.218C116.726 108.404 117.049 108.557 117.442 108.557C117.836 108.557 118.159 108.71 118.159 108.896C118.159 109.083 118.4 109.235 118.696 109.235C118.991 109.235 119.233 109.388 119.233 109.575C119.233 109.761 119.52 109.914 119.87 109.914C120.22 109.914 120.739 110.219 121.023 110.592C121.307 110.965 121.751 111.271 122.009 111.271C122.584 111.271 124.962 109.067 124.962 108.535C124.962 108.323 125.445 107.723 126.036 107.2C126.627 106.677 127.11 106.039 127.11 105.782C127.11 105.525 127.432 105.094 127.826 104.825C128.22 104.556 128.542 104.077 128.542 103.761C128.542 103.445 128.744 103.12 128.99 103.04C129.273 102.948 129.009 102.513 128.274 101.858C127.633 101.288 127.11 100.577 127.11 100.279C127.11 99.9629 126.811 99.7366 126.394 99.7366C125.981 99.7366 125.678 99.5103 125.678 99.2037C125.678 98.5181 124.816 97.7012 124.092 97.7012C123.768 97.7012 123.529 97.4135 123.529 97.0227C123.529 96.6495 123.368 96.3442 123.171 96.3442C122.974 96.3442 122.813 95.8099 122.813 95.1569C122.813 94.5038 122.974 93.9695 123.171 93.9695C123.368 93.9695 123.529 93.5451 123.529 93.0268C123.529 92.4731 123.825 91.8822 124.246 91.5948C124.639 91.3258 124.962 90.8997 124.962 90.6477C124.962 89.6999 125.976 89.2202 127.98 89.2202C129.077 89.2202 129.974 89.3728 129.974 89.5594C129.974 89.746 130.78 89.8986 131.765 89.8986C132.749 89.8986 133.555 90.0513 133.555 90.2379C133.555 90.4245 134.038 90.5771 134.629 90.5771C135.464 90.5771 135.703 90.4265 135.703 89.8986C135.703 89.5255 135.864 89.2202 136.061 89.2202C136.258 89.2202 136.419 88.6095 136.419 87.8632C136.419 87.1169 136.581 86.5062 136.777 86.5062C136.974 86.5062 137.136 86.2009 137.136 85.8278C137.136 85.4546 137.297 85.1493 137.494 85.1493C137.691 85.1493 137.852 84.386 137.852 83.4531C137.852 82.5202 138.013 81.7569 138.21 81.7569C138.753 81.7569 138.638 80.0783 138.056 79.5277C137.775 79.2611 137.131 79.043 136.624 79.043C136.118 79.043 135.703 78.8903 135.703 78.7037C135.703 78.5171 135.381 78.3645 134.987 78.3645C134.593 78.3645 134.271 78.2118 134.271 78.0252C134.271 77.8387 133.788 77.686 133.197 77.686C132.606 77.686 132.123 77.5333 132.123 77.3468C132.123 77.1602 131.874 77.0075 131.57 77.0075C130.812 77.0075 128.967 75.2336 129.537 75.0538C129.822 74.9639 129.974 74.1464 129.974 72.7144C129.974 70.4514 130.428 69.5442 131.56 69.5442C131.87 69.5442 132.123 69.3916 132.123 69.205C132.123 69.0184 132.767 68.8658 133.555 68.8658C134.343 68.8658 134.987 68.7131 134.987 68.5265C134.987 68.3399 135.793 68.1873 136.777 68.1873C138.13 68.1873 138.568 68.0628 138.568 67.6784C138.568 67.3958 138.886 67.1696 139.284 67.1696C139.952 67.1696 140 66.9433 140 63.7772C140 61.7417 139.857 60.3848 139.642 60.3848C139.445 60.3848 139.284 59.5343 139.284 58.4949C139.284 55.9896 138.866 55.6354 135.908 55.6354C134.578 55.6354 133.555 55.4878 133.555 55.2962C133.555 55.1096 132.657 54.9569 131.56 54.9569C129.507 54.9569 128.542 54.4765 128.542 53.4544C128.542 53.1613 128.381 52.9215 128.184 52.9215C127.987 52.9215 127.826 52.3108 127.826 51.5645C127.826 50.8182 127.665 50.2075 127.468 50.2075C127.271 50.2075 127.11 49.4443 127.11 48.5113C127.11 47.5784 127.271 46.8151 127.468 46.8151C127.665 46.8151 127.826 46.5098 127.826 46.1367C127.826 45.7123 128.065 45.4582 128.463 45.4582C128.814 45.4582 129.332 45.1529 129.616 44.7797C129.9 44.4065 130.384 44.1012 130.691 44.1012C130.997 44.1012 131.481 43.7959 131.765 43.4227C132.049 43.0496 132.498 42.7443 132.764 42.7443C133.584 42.7443 134.271 41.8263 134.271 40.7329C134.271 40.1599 134.11 39.6911 133.913 39.6911C133.716 39.6911 133.555 39.2667 133.555 38.7484C133.555 38.1947 133.259 37.6038 132.839 37.3164C132.445 37.0474 132.123 36.5558 132.123 36.2237C132.123 35.8919 131.962 35.6202 131.765 35.6202C131.568 35.6202 131.407 35.3149 131.407 34.9417C131.407 34.5686 131.246 34.2633 131.049 34.2633C130.852 34.2633 130.691 33.9915 130.691 33.6598C130.691 33.3276 130.368 32.8361 129.974 32.5671C129.581 32.298 129.258 31.8065 129.258 31.4744C129.258 31.0971 128.99 30.8709 128.542 30.8709C128.148 30.8709 127.826 31.0235 127.826 31.2101C127.826 31.3967 127.343 31.5493 126.752 31.5493C126.161 31.5493 125.678 31.702 125.678 31.8886C125.678 32.0752 125.355 32.2278 124.962 32.2278C124.568 32.2278 124.246 32.3805 124.246 32.5671C124.246 32.7536 123.762 32.9063 123.171 32.9063C122.581 32.9063 122.097 33.059 122.097 33.2455C122.097 33.4321 121.453 33.5848 120.665 33.5848C119.877 33.5848 119.233 33.4321 119.233 33.2455C119.233 33.059 118.991 32.9063 118.696 32.9063C118.4 32.9063 118.159 32.7536 118.159 32.5671C118.159 32.3805 117.836 32.2278 117.442 32.2278C117.025 32.2278 116.726 32.0015 116.726 31.6854C116.726 31.3872 116.243 30.7151 115.652 30.1924C114.725 29.3718 114.578 29.0003 114.578 27.4785C114.578 25.9566 114.725 25.5852 115.652 24.7645C116.243 24.2418 116.726 23.6393 116.726 23.4256C116.726 22.9398 118.354 21.3721 118.859 21.3721C119.064 21.3721 119.233 20.9142 119.233 20.3544C119.233 19.7947 119.059 19.3367 118.847 19.3367C118.634 19.3367 117.841 18.7261 117.084 17.9797C116.327 17.2334 115.524 16.6228 115.299 16.6228C115.074 16.6228 114.105 15.8595 113.146 14.9266C110.63 12.4793 109.871 12.559 106.701 15.605C105.341 16.9111 103.98 17.9797 103.674 17.9797C103.37 17.9797 103.12 18.1324 103.12 18.319C103.12 18.5056 102.637 18.6582 102.046 18.6582C101.455 18.6582 100.972 18.5056 100.972 18.319C100.972 18.1324 100.685 17.9797 100.335 17.9797C99.9843 17.9797 99.4655 17.6744 99.1816 17.3013C98.8976 16.9281 98.3788 16.6228 98.0283 16.6228C97.6301 16.6228 97.3913 16.3687 97.3913 15.9443C97.3913 15.5711 97.2302 15.2658 97.0332 15.2658C96.8363 15.2658 96.6752 14.5788 96.6752 13.7392C96.6752 12.8996 96.8363 12.2126 97.0332 12.2126C97.2302 12.2126 97.3913 11.602 97.3913 10.8557C97.3913 10.1094 97.5524 9.49872 97.7494 9.49872C97.9463 9.49872 98.1074 9.04075 98.1074 8.481C98.1074 7.92126 98.2685 7.46328 98.4655 7.46328C98.6624 7.46328 98.8235 7.15797 98.8235 6.7848C98.8235 6.3326 98.5847 6.10632 98.1074 6.10632C97.7136 6.10632 97.3913 5.95366 97.3913 5.76708C97.3913 5.5805 97.069 5.42784 96.6752 5.42784C96.2813 5.42784 95.9591 5.27519 95.9591 5.0886C95.9591 4.90202 95.4757 4.74936 94.8849 4.74936C94.2941 4.74936 93.8107 4.5967 93.8107 4.41012C93.8107 4.22354 93.4885 4.07088 93.0946 4.07088C92.7008 4.07088 92.3785 3.91822 92.3785 3.73164C92.3785 3.54506 91.734 3.3924 90.9463 3.3924C90.1586 3.3924 89.5141 3.23974 89.5141 3.05316C89.5141 2.86658 89.0307 2.71392 88.4399 2.71392C87.6045 2.71392 87.3657 2.86454 87.3657 3.3924C87.3657 3.76557 87.2046 4.07088 87.0077 4.07088C86.8107 4.07088 86.6496 4.3762 86.6496 4.74936C86.6496 5.12253 86.4885 5.42784 86.2916 5.42784C86.0946 5.42784 85.9335 5.85223 85.9335 6.37059C85.9335 6.92423 85.6377 7.51519 85.2174 7.80252C84.8235 8.07154 84.5013 8.4939 84.5013 8.74086C84.5013 8.98817 84.1056 9.56488 83.6223 10.0229C82.947 10.663 82.3665 10.8557 81.1159 10.8557C80.2207 10.8557 79.4885 10.703 79.4885 10.5164C79.4885 10.3299 79.0785 10.1772 78.5772 10.1772C78.076 10.1772 77.2703 9.80234 76.787 9.34437C75.9552 8.55665 75.9079 8.30121 75.9079 4.59501V0.67848H72.5064C70.4773 0.67848 69.1049 0.541427 69.1049 0.33924C69.1049 0.152658 68.9437 0 68.7468 0C68.5499 0 68.3887 0.152658 68.3887 0.33924ZM70.2829 12.8911C70.1278 13.4529 69.7945 13.5696 68.3468 13.5696H66.5985V15.0463V16.523L68.3887 16.3602C70.0004 16.2133 70.179 16.2652 70.179 16.8792C70.179 17.576 69.319 17.9662 67.7621 17.975C67.0618 17.9791 66.9565 18.1572 66.9565 19.3367V20.6937H68.7468C70.4178 20.6937 70.5371 20.7503 70.5371 21.5418C70.5371 22.3522 70.4415 22.3899 68.3887 22.3899C66.5838 22.3899 66.2393 22.2949 66.2343 21.7962C66.225 20.9213 65.5683 14.9591 65.3188 13.4848L65.1032 12.2126H67.7865C70.2936 12.2126 70.4576 12.2571 70.2829 12.8911ZM78.6277 13.3912C78.3531 14.4275 76.9821 21.9875 76.9821 22.4652C76.9821 22.6942 76.826 22.6894 76.5223 22.4509C76.2534 22.2392 75.8582 22.2094 75.5692 22.3783C74.0489 23.2688 73.1226 18.569 74.3679 16.2835C74.9186 15.2726 75.1875 15.1037 76.1775 15.1461C77.2993 15.1946 77.3401 15.1498 77.3401 13.8739C77.3401 12.7554 77.4565 12.5519 78.0949 12.5519C78.7194 12.5519 78.8114 12.6971 78.6277 13.3912ZM52.2064 19.9304C53.002 22.1229 53.7632 24.1834 53.8982 24.5101C54.0518 24.8822 53.9766 25.1038 53.6966 25.1038C53.4514 25.1038 53.0586 25.3521 52.8244 25.6557C52.4753 26.1079 52.2565 26.1354 51.6099 25.8077C50.4841 25.2368 48.7519 22.8492 48.4848 21.5004C48.2291 20.2096 49.0462 18.6582 49.9811 18.6582C50.3846 18.6582 50.4716 18.4516 50.3026 17.8949C50.1751 17.4753 49.9925 16.8643 49.8962 16.538C49.7877 16.1695 49.9184 15.9443 50.2403 15.9443C50.5819 15.9443 51.2536 17.3063 52.2064 19.9304ZM82.3529 16.2978C82.3529 16.4922 82.1041 17.7931 81.7997 19.1891C81.4954 20.5848 81.3504 21.8857 81.4771 22.0805C81.7582 22.5113 83.069 21.477 83.069 20.8243C83.069 20.5807 83.344 19.5355 83.6799 18.5022C84.1407 17.0845 84.458 16.6228 84.9714 16.6228C85.4834 16.6228 85.5855 16.77 85.3832 17.2164C85.2353 17.5428 84.6334 19.146 84.0458 20.7785C83.0601 23.5168 82.9029 23.7468 82.0207 23.7468C80.7277 23.7468 80.2053 23.1667 80.2017 21.7283C80.1971 19.9273 81.3633 15.9443 81.895 15.9443C82.147 15.9443 82.3529 16.1034 82.3529 16.2978ZM58.3041 17.2982C58.7395 17.8562 59.1914 18.7647 59.3081 19.3174C59.4964 20.2106 59.4065 20.3476 58.4939 20.5546C56.9879 20.8965 56.9195 20.9773 57.3599 21.8932C57.8694 22.9523 58.2891 22.9567 58.5676 21.9054C58.6876 21.4525 59.013 20.9993 59.2905 20.8986C60.0464 20.6238 59.9386 22.4865 59.1448 23.415C58.6016 24.0508 58.3703 24.1135 57.7445 23.7963C56.5962 23.2139 55.4937 21.2632 55.2613 19.4022C55.0841 17.9852 55.1693 17.6133 55.812 17.0044C56.8368 16.0335 57.366 16.0959 58.3041 17.2982ZM74.862 17.8434C74.3608 19.4517 74.6261 21.172 75.3708 21.1411C76.5528 21.0923 77.0534 16.5685 75.8997 16.3612C75.5255 16.294 75.2 16.7588 74.862 17.8434ZM56.4529 18.378C56.1837 19.3526 56.4193 19.6505 57.2894 19.4347C58.2547 19.1956 58.2905 17.6405 57.3309 17.6405C56.9395 17.6405 56.5711 17.9502 56.4529 18.378ZM91.2374 19.9656C91.3194 21.0519 91.2274 21.4044 90.889 21.2975C90.6359 21.2174 90.3365 20.7819 90.2237 20.3293C89.7386 18.3807 88.1431 20.1166 87.8047 22.9618C87.6171 24.5393 88.1076 24.9202 88.8588 23.7807C89.0923 23.4262 89.4926 23.2122 89.7479 23.3048C90.5678 23.603 89.3017 25.443 88.2773 25.443C87.4739 25.443 86.2862 24.6658 86.2959 24.1468C86.3138 23.1779 87.4316 20.2425 88.1173 19.3642C88.789 18.5032 89.1746 18.3074 90.0415 18.3878C91.0455 18.4811 91.1335 18.5975 91.2374 19.9656ZM44.0087 24.2275C45.3675 26.4502 46.3944 28.4792 46.2902 28.7364C46.0399 29.3545 46.1506 29.4959 43.1436 24.7157C40.7572 20.9216 40.2849 19.7903 41.2112 20.0827C41.3909 20.1393 42.6499 22.0045 44.0087 24.2275ZM49.7698 21.0214C49.7698 23.0327 51.6314 25.5282 52.1595 24.2245C52.3944 23.6437 51.7001 21.1119 51.1211 20.4392C50.4566 19.6668 49.7698 19.9629 49.7698 21.0214ZM96.7364 21.2551C97.7408 22.1164 97.5295 23.3122 95.8953 26.0187C94.5827 28.1919 93.4527 29.1814 93.4527 28.1569C93.4527 27.9704 93.1362 27.8177 92.7491 27.8177C91.14 27.8177 91.1124 25.6248 92.7029 24.1179C93.2407 23.6084 93.7126 23.4903 94.6411 23.6328C96.088 23.8554 96.6806 23.2675 95.8259 22.4577C95.2967 21.956 95.2118 21.9614 94.78 22.5208C94.3872 23.0297 94.2429 23.0531 93.902 22.6636C93.4341 22.1293 93.6804 21.65 94.7059 21.099C95.6769 20.5773 95.9727 20.6 96.7364 21.2551ZM102.376 24.7645C103.002 24.7645 103.466 26.4536 103.068 27.282C102.568 28.3208 101.736 28.0728 101.962 26.9526C102.105 26.2446 101.993 26.1215 101.208 26.1215C100.499 26.1215 100.076 26.4614 99.3756 27.5931C98.8751 28.4025 98.4655 29.3185 98.4655 29.6286C98.4655 30.286 99.2074 30.3715 99.8261 29.7853C100.139 29.4891 100.363 29.48 100.65 29.7514C101.212 30.2847 99.6936 31.6667 98.7906 31.4428C98.3871 31.3431 98.1074 31.4476 98.1074 31.6983C98.1074 32.3618 96.7618 33.3497 96.1574 33.1299C95.5187 32.8975 95.8055 31.8886 96.5105 31.8886C97.0483 31.8886 97.5488 30.708 97.2227 30.208C96.9172 29.7402 98.5614 26.7986 99.8694 25.4718C100.577 24.7544 101.176 24.4267 101.539 24.5586C101.85 24.6719 102.227 24.7645 102.376 24.7645ZM40.3658 26.0367C40.9376 26.7365 41.9058 28.0246 42.5174 28.8995L43.6292 30.4899L42.4268 31.359C41.7655 31.8367 41.1185 32.2278 40.9892 32.2278C40.4578 32.2278 38.6701 30.3196 38.6701 29.7527C38.6701 29.4162 38.9254 28.6729 39.2376 28.101C39.8681 26.9462 39.4997 26.2168 38.4742 26.5896C38.0553 26.742 37.925 27.0703 38.0456 27.6688C38.1788 28.3286 38.0843 28.5047 37.6392 28.4249C36.7029 28.257 36.6979 26.5181 37.631 25.5774C38.7224 24.4765 39.1492 24.5484 40.3658 26.0367ZM92.7759 25.5675C92.4666 25.9207 92.5006 26.1344 92.9178 26.4624C93.3685 26.8169 93.5923 26.7854 94.1756 26.2853C94.5655 25.9509 94.8849 25.5482 94.8849 25.3904C94.8849 24.924 93.2171 25.0641 92.7759 25.5675ZM73.7596 25.7823C73.7596 25.976 74.8338 26.1215 76.266 26.1215C77.6982 26.1215 78.7724 26.267 78.7724 26.4607C78.7724 26.6473 79.4169 26.8 80.2046 26.8C80.9923 26.8 81.6368 26.9526 81.6368 27.1392C81.6368 27.3258 82.1202 27.4785 82.711 27.4785C83.3018 27.4785 83.7852 27.6311 83.7852 27.8177C83.7852 28.0043 84.2685 28.1569 84.8593 28.1569C85.4501 28.1569 85.9335 28.3096 85.9335 28.4962C85.9335 28.6828 86.4169 28.8354 87.0077 28.8354C87.5985 28.8354 88.0818 28.9881 88.0818 29.1747C88.0818 29.3612 88.4041 29.5139 88.798 29.5139C89.1918 29.5139 89.5141 29.6666 89.5141 29.8531C89.5141 30.0397 89.8009 30.1924 90.151 30.1924C90.5016 30.1924 91.0204 30.4977 91.3043 30.8709C91.5883 31.244 92.1071 31.5493 92.4576 31.5493C92.8078 31.5493 93.0946 31.702 93.0946 31.8886C93.0946 32.0752 93.3521 32.2278 93.6672 32.2278C93.9819 32.2278 94.6912 32.6858 95.243 33.2455C95.7947 33.8053 96.4256 34.2633 96.6448 34.2633C97.1432 34.2633 103.12 39.8953 103.12 40.3648C103.12 40.5541 103.281 40.7088 103.478 40.7088C103.675 40.7088 103.836 40.9527 103.836 41.2513C103.836 41.5495 104.32 42.2215 104.91 42.7443C105.501 43.267 105.985 43.9055 105.985 44.1623C105.985 44.4194 106.307 44.8499 106.701 45.1189C107.095 45.388 107.417 45.8795 107.417 46.2116C107.417 46.5434 107.578 46.8151 107.775 46.8151C107.972 46.8151 108.133 47.1205 108.133 47.4936C108.133 47.8668 108.294 48.1721 108.491 48.1721C108.688 48.1721 108.849 48.4774 108.849 48.8506C108.849 49.2237 109.01 49.5291 109.207 49.5291C109.404 49.5291 109.565 49.8344 109.565 50.2075C109.565 50.5807 109.726 50.886 109.923 50.886C110.12 50.886 110.281 51.344 110.281 51.9037C110.281 52.4635 110.442 52.9215 110.639 52.9215C110.836 52.9215 110.997 53.2268 110.997 53.5999C110.997 53.9731 111.159 54.2784 111.355 54.2784C111.552 54.2784 111.714 54.8891 111.714 55.6354C111.714 56.3817 111.875 56.9924 112.072 56.9924C112.271 56.9924 112.43 57.8971 112.43 59.0278C112.43 60.1585 112.589 61.0632 112.788 61.0632C113.014 61.0632 113.146 63.3813 113.146 67.3392C113.146 71.2971 113.014 73.6151 112.788 73.6151C112.591 73.6151 112.43 74.3784 112.43 75.3113C112.43 76.2442 112.269 77.0075 112.072 77.0075C111.875 77.0075 111.714 77.6182 111.714 78.3645C111.714 79.1108 111.552 79.7214 111.355 79.7214C111.159 79.7214 110.997 80.0268 110.997 80.3999C110.997 80.7731 110.836 81.0784 110.639 81.0784C110.442 81.0784 110.281 81.5364 110.281 82.0961C110.281 82.6559 110.12 83.1138 109.923 83.1138C109.726 83.1138 109.565 83.5718 109.565 84.1316C109.565 84.6913 109.404 85.1493 109.207 85.1493C109.01 85.1493 108.849 85.421 108.849 85.7528C108.849 86.0849 108.527 86.5765 108.133 86.8455C107.739 87.1145 107.417 87.6061 107.417 87.9382C107.417 88.27 107.256 88.5417 107.059 88.5417C106.862 88.5417 106.701 88.8134 106.701 89.1452C106.701 89.4773 106.379 89.9689 105.985 90.2379C105.591 90.5069 105.269 90.9374 105.269 91.1945C105.269 91.4514 104.785 92.0898 104.194 92.6126C103.604 93.1353 103.12 93.8074 103.12 94.1056C103.12 94.4217 102.822 94.648 102.404 94.648C101.919 94.648 101.688 94.8743 101.688 95.3506C101.688 96.1834 100.892 97.0227 100.102 97.0227C99.7785 97.0227 99.5396 97.3104 99.5396 97.7012C99.5396 98.093 99.3008 98.3797 98.9746 98.3797C98.6635 98.3797 97.7902 98.9903 97.0332 99.7366C96.2763 100.483 95.4385 101.094 95.171 101.094C94.9035 101.094 94.4527 101.399 94.1688 101.772C93.8848 102.145 93.366 102.451 93.0155 102.451C92.6653 102.451 92.3785 102.603 92.3785 102.79C92.3785 102.976 92.0917 103.129 91.7415 103.129C91.391 103.129 90.8722 103.434 90.5882 103.807C90.285 104.206 89.6612 104.486 89.0769 104.486C88.5298 104.486 88.0818 104.639 88.0818 104.825C88.0818 105.012 87.7596 105.164 87.3657 105.164C86.9719 105.164 86.6496 105.317 86.6496 105.504C86.6496 105.69 86.1662 105.843 85.5754 105.843C84.9846 105.843 84.5013 105.996 84.5013 106.182C84.5013 106.369 84.0179 106.521 83.4271 106.521C82.8363 106.521 82.3529 106.674 82.3529 106.861C82.3529 107.047 81.8696 107.2 81.2788 107.2C80.688 107.2 80.2046 107.353 80.2046 107.539C80.2046 107.726 79.399 107.878 78.4143 107.878C77.4297 107.878 76.624 108.031 76.624 108.218C76.624 108.431 74.2967 108.557 70.3581 108.557C66.4194 108.557 64.0921 108.431 64.0921 108.218C64.0921 108.029 63.1371 107.878 61.9437 107.878C60.7503 107.878 59.7954 107.728 59.7954 107.539C59.7954 107.353 59.1509 107.2 58.3632 107.2C57.5754 107.2 56.9309 107.047 56.9309 106.861C56.9309 106.674 56.6087 106.521 56.2148 106.521C55.821 106.521 55.4987 106.369 55.4987 106.182C55.4987 105.996 55.0153 105.843 54.4245 105.843C53.8338 105.843 53.3504 105.69 53.3504 105.504C53.3504 105.317 52.867 105.164 52.2762 105.164C51.6854 105.164 51.202 105.012 51.202 104.825C51.202 104.639 50.9152 104.486 50.5651 104.486C50.2145 104.486 49.6957 104.181 49.4118 103.807C49.1278 103.434 48.609 103.129 48.2585 103.129C47.9083 103.129 47.6215 102.976 47.6215 102.79C47.6215 102.603 47.3347 102.451 46.9845 102.451C46.634 102.451 46.1151 102.145 45.8312 101.772C45.5473 101.399 45.0929 101.094 44.8215 101.094C44.5504 101.094 43.8766 100.636 43.3248 100.076C42.773 99.5161 42.1407 99.0581 41.9202 99.0581C41.4182 99.0581 37.5959 95.4663 37.5959 94.9947C37.5959 94.8041 37.4348 94.648 37.2379 94.648C37.0409 94.648 36.8798 94.4041 36.8798 94.1056C36.8798 93.8074 36.3964 93.1353 35.8056 92.6126C35.2148 92.0898 34.7315 91.4792 34.7315 91.2556C34.7315 91.032 34.2481 90.4214 33.6573 89.8986C33.0665 89.3759 32.5831 88.7038 32.5831 88.4057C32.5831 88.1071 32.422 87.8632 32.2251 87.8632C32.0281 87.8632 31.867 87.5579 31.867 87.1847C31.867 86.8116 31.7059 86.5062 31.509 86.5062C31.312 86.5062 31.1509 86.2009 31.1509 85.8278C31.1509 85.4546 30.9898 85.1493 30.7928 85.1493C30.5959 85.1493 30.4348 84.844 30.4348 84.4708C30.4348 84.0976 30.2737 83.7923 30.0767 83.7923C29.8798 83.7923 29.7187 83.3344 29.7187 82.7746C29.7187 82.2149 29.5575 81.7569 29.3606 81.7569C29.1637 81.7569 29.0026 81.4516 29.0026 81.0784C29.0026 80.7052 28.8414 80.3999 28.6445 80.3999C28.4476 80.3999 28.2864 79.7893 28.2864 79.043C28.2864 78.2966 28.1253 77.686 27.9284 77.686C27.7293 77.686 27.5703 76.7812 27.5703 75.6506C27.5703 74.5199 27.4114 73.6151 27.2123 73.6151C27.0132 73.6151 26.8542 72.7104 26.8542 71.5797C26.8542 70.449 26.6952 69.5442 26.4962 69.5442C26.2856 69.5442 26.1381 68.3569 26.1381 66.6607C26.1381 64.9645 26.2856 63.7772 26.4962 63.7772C26.6931 63.7772 26.8542 63.0139 26.8542 62.081C26.8542 61.148 27.0153 60.3848 27.2123 60.3848C27.4092 60.3848 27.5703 59.6215 27.5703 58.6885C27.5703 57.7556 27.7315 56.9924 27.9284 56.9924C28.1253 56.9924 28.2864 56.3817 28.2864 55.6354C28.2864 54.8891 28.4476 54.2784 28.6445 54.2784C28.8414 54.2784 29.0026 53.8205 29.0026 53.2607C29.0026 52.701 29.1637 52.243 29.3606 52.243C29.5575 52.243 29.7187 51.9377 29.7187 51.5645C29.7187 51.1913 29.8798 50.886 30.0767 50.886C30.2737 50.886 30.4348 50.4616 30.4348 49.9433C30.4348 49.3896 30.7305 48.7987 31.1509 48.5113C31.5448 48.2423 31.867 47.7508 31.867 47.4187C31.867 47.0869 32.0281 46.8151 32.2251 46.8151C32.422 46.8151 32.5831 46.5434 32.5831 46.2116C32.5831 45.8795 32.9054 45.388 33.2992 45.1189C33.6931 44.8499 34.0153 44.3584 34.0153 44.0263C34.0153 43.6945 34.1765 43.4227 34.3734 43.4227C34.5703 43.4227 34.7315 43.1788 34.7315 42.8803C34.7315 42.5821 35.2148 41.9101 35.8056 41.3873C36.3964 40.8645 36.8798 40.3431 36.8798 40.2291C36.8798 39.8163 43.6854 33.5848 44.1362 33.5848C44.3907 33.5848 44.8311 33.2795 45.1151 32.9063C45.399 32.5331 45.8824 32.2278 46.1893 32.2278C46.4961 32.2278 46.9795 31.9225 47.2634 31.5493C47.5474 31.1762 48.0662 30.8709 48.4167 30.8709C48.7669 30.8709 49.0537 30.7182 49.0537 30.5316C49.0537 30.345 49.376 30.1924 49.7698 30.1924C50.1637 30.1924 50.4859 30.0397 50.4859 29.8531C50.4859 29.6666 50.8082 29.5139 51.202 29.5139C51.5959 29.5139 51.9182 29.3612 51.9182 29.1747C51.9182 28.9881 52.4015 28.8354 52.9923 28.8354C53.5831 28.8354 54.0665 28.6828 54.0665 28.4962C54.0665 28.3096 54.3887 28.1569 54.7826 28.1569C55.1765 28.1569 55.4987 28.0043 55.4987 27.8177C55.4987 27.6311 56.1432 27.4785 56.9309 27.4785C57.7187 27.4785 58.3632 27.3258 58.3632 27.1392C58.3632 26.9526 59.0077 26.8 59.7954 26.8C60.5831 26.8 61.2276 26.6473 61.2276 26.4607C61.2276 26.2721 62.1826 26.1215 63.376 26.1215C64.5694 26.1215 65.5243 25.9709 65.5243 25.7823C65.5243 25.5757 67.1355 25.443 69.6419 25.443C72.1483 25.443 73.7596 25.5757 73.7596 25.7823ZM109.028 27.4785C109.158 27.8669 109.57 28.1569 109.991 28.1569C110.605 28.1569 110.653 28.2414 110.281 28.6658C109.651 29.3857 108.58 29.2971 108.314 28.503C108.191 28.1335 107.978 27.8465 107.843 27.8648C107.159 27.9571 107.014 27.7682 107.417 27.3088C108.039 26.5988 108.759 26.6745 109.028 27.4785ZM40.1886 29.1696C39.6289 30.019 39.9831 30.8709 40.8954 30.8709C41.4976 30.8709 41.5732 30.7216 41.3691 29.9379C41.0275 28.6278 40.6906 28.4083 40.1886 29.1696ZM35.676 31.3801C36.6335 32.4995 37.6317 33.6754 37.8942 33.9929C38.2984 34.4821 38.2712 34.7002 37.7151 35.4238C37.3542 35.8933 36.7011 36.2821 36.2639 36.2882C35.2155 36.3021 30.7116 32.1444 31.0012 31.4299C31.1527 31.0561 31.7617 31.4496 33.3268 32.9324C34.4933 34.0377 35.599 34.9417 35.7845 34.9417C37.1043 34.9417 35.9034 32.5572 33.8288 31.0581C32.7496 30.2782 32.6325 30.0601 32.9723 29.4586C33.1886 29.0759 33.4937 28.8934 33.6501 29.0535C33.807 29.2133 34.7186 30.2602 35.676 31.3801ZM107.913 29.6716C108.231 30.1313 108.491 30.6392 108.491 30.7996C108.491 30.9601 107.465 32.0877 106.211 33.3052C104.957 34.5228 103.841 35.7325 103.729 35.9937C103.586 36.3286 103.454 36.2434 103.282 35.705C103.147 35.2854 102.833 34.9417 102.585 34.9417C102.337 34.9417 101.927 34.7053 101.674 34.4166C101.296 33.9851 101.32 33.6815 101.806 32.7143C102.617 31.1026 103.942 30.552 105.271 31.2742C106.326 31.8479 107.059 31.569 107.059 30.5951C107.059 30.2534 106.745 30.1591 105.969 30.267C104.724 30.44 104.291 30.0513 104.923 29.3293C105.622 28.5318 107.254 28.7184 107.913 29.6716ZM102.882 32.7594C102.501 33.6998 103.338 34.0892 104.367 33.4508C104.875 33.1349 105.196 32.7306 105.08 32.5521C104.738 32.0277 103.117 32.1807 102.882 32.7594ZM32.7156 37.6604L34.3444 38.7687L33.5534 39.7216C33.1181 40.2454 32.4882 40.7662 32.1535 40.8788C30.7839 41.3385 26.8542 38.3253 26.8542 36.8154C26.8542 36.3554 27.2019 35.7671 27.6502 35.4699C28.0877 35.1795 28.2889 34.9363 28.0977 34.9295C27.4114 34.9054 25.6916 33.3161 25.9401 32.9355C26.1019 32.6871 27.0619 33.2618 28.6391 34.5513C29.9851 35.6518 31.8197 37.0508 32.7156 37.6604ZM63.376 33.2306C59.423 33.8955 58.8845 34.041 56.1253 35.1928L54.0665 36.0521V68.5265V101.001L56.1865 101.902C58.6192 102.937 62.6219 103.954 65.6138 104.298L67.6726 104.535V98.4041C67.6726 92.2767 68.4779 91.4761 67.6726 91.4612C66.0342 91.431 61.002 91.6674 59.5269 91.2851L58.0051 90.8903V81.9133V72.9366H62.4808H66.9565V66.6319V60.3267L64.1816 60.5394C62.6556 60.6565 60.6415 60.8363 59.7059 60.9394L58.0051 61.127V53.6478V46.1685L59.3478 45.7757C60.0865 45.5596 62.2613 45.3059 64.1816 45.2116L67.6726 45.0399V38.8036C67.6726 34.0159 67.5688 32.5776 67.2251 32.6129C66.9791 32.6383 65.2468 32.9161 63.376 33.2306ZM74.1176 68.5533V104.54L75.2813 104.32C78.1451 103.779 83.0948 102.318 85.3069 101.361L87.7238 100.315V94.9004V89.4858L86.7391 89.7229C86.1977 89.8532 84.3043 90.2572 82.532 90.6209C80.7596 90.9842 79.0277 91.3625 78.6829 91.4612C78.0967 91.6291 78.0563 91.0375 78.0563 82.2885V72.9366L80.6522 72.9336C82.0801 72.9322 84.0942 72.8345 85.1279 72.7168L87.0077 72.5027V66.9796V61.4564L84.5908 61.2471C83.2613 61.1321 81.2473 60.9523 80.1151 60.8478L78.0563 60.6575V53.0514V45.4453L78.8619 45.6186C79.3052 45.714 81.4138 46.175 83.5485 46.6428C85.6829 47.1106 87.4953 47.4936 87.5766 47.4936C87.6575 47.4936 87.7238 44.9873 87.7238 41.9243V36.355L83.3376 34.9858C79.4706 33.7788 74.9601 32.5671 74.3346 32.5671C74.2154 32.5671 74.1176 48.761 74.1176 68.5533ZM112.372 34.7881C112.974 36.0402 112.897 36.4629 111.85 37.6418C109.643 40.127 105.985 40.4578 105.985 38.1723C105.985 37.1475 106.821 36.1728 108.725 34.9777C110.79 33.6818 111.815 33.6285 112.372 34.7881ZM108.956 36.0653C107.552 36.9748 106.823 38.2697 107.563 38.539C108.254 38.7897 110.888 37.465 111.36 36.6298C112.18 35.1779 110.82 34.8586 108.956 36.0653ZM28.1457 36.5789C27.6878 37.2811 28.4791 38.3776 29.9435 39.0706C31.9655 40.0273 32.7303 39.5598 31.5251 38.1038C30.3306 36.6613 28.6012 35.8808 28.1457 36.5789ZM93.4527 68.4699V97.3358L95.0525 96.4161L96.6526 95.4961L96.6637 85.4576L96.6752 75.4192L98.5754 75.0165C102.905 74.0985 104.553 70.219 104.551 60.9564C104.549 50.7955 102.114 44.6688 97.0332 42.04C96.344 41.6831 95.2566 40.9894 94.6164 40.4978L93.4527 39.6043V68.4699ZM27.498 41.9786C28.6209 42.6771 29.8619 43.3746 30.2558 43.5289C30.9647 43.8068 30.9643 43.8135 30.2189 44.2098C29.8046 44.43 29.5264 44.7739 29.6009 44.9741C29.6753 45.1742 29.4097 45.618 29.0108 45.9603C28.3069 46.5634 28.2478 46.5631 27.0325 45.943C26.3436 45.5915 25.78 45.1223 25.78 44.9005C25.78 44.6786 25.5788 44.4079 25.3325 44.299C24.9744 44.1409 24.9744 44.0615 25.3325 43.9035C25.8441 43.6772 25.9505 41.7265 25.4514 41.7265C24.1513 41.7265 23.5275 42.8491 24.379 43.6558C24.9716 44.2172 24.1978 44.4897 23.4606 43.9791C22.7258 43.4702 22.6231 41.9603 23.2726 41.2187C23.9994 40.3893 25.326 40.6277 27.498 41.9786ZM120.884 42.5628L121.811 44.4164L121.042 45.3428C120.165 46.3982 118.001 47.2436 116.835 46.9854C116.402 46.8898 115.763 46.3541 115.415 45.7954C115.067 45.2367 114.644 44.7797 114.475 44.7797C114.306 44.7797 113.455 45.1759 112.583 45.66C111.289 46.3785 110.997 46.4416 110.997 46.003C110.997 45.6743 112.075 44.9446 113.772 44.1243C115.298 43.3861 117.272 42.3165 118.159 41.7472C119.045 41.1777 119.812 40.7112 119.864 40.7102C119.916 40.7095 120.375 41.543 120.884 42.5628ZM40.6354 43.4641C39.0292 45.5315 37.419 49.5823 36.5393 53.7696C35.0208 60.9957 35.1293 76.9146 36.7477 84.4332C38.0198 90.3427 40.5742 95.0001 42.8382 95.5385C45.1036 96.0772 46.8459 92.0219 47.6193 84.4118C48.0057 80.6103 47.9903 80.3928 47.2373 78.9941C46.8058 78.1928 46.1116 77.0988 45.6944 76.5628L44.9361 75.5881L44.7098 76.5523C44.5855 77.0825 44.4645 78.3865 44.4412 79.4504C44.3463 83.7869 43.0473 86.6443 41.5685 85.7691C39.5197 84.557 38.4893 78.6935 38.5082 68.3569C38.5183 62.8693 38.6848 60.0129 39.1366 57.5677C39.8277 53.831 41.2216 50.7792 42.1593 50.9501C43.2049 51.1411 44.0731 53.1067 44.3782 55.9729C44.5386 57.4836 44.7406 58.7863 44.8265 58.8677C44.9128 58.9491 45.6787 58.081 46.5291 56.9387L48.0751 54.8619L47.8764 52.2803C47.6043 48.7407 46.4052 44.2742 45.3038 42.6971C44.5809 41.6624 44.1641 41.3873 43.3191 41.3873C42.4236 41.3873 41.9864 41.7259 40.6354 43.4641ZM117.389 43.1948L116.081 43.9499L116.792 44.873C117.366 45.6207 117.683 45.7543 118.456 45.5749C120.037 45.2088 120.326 44.4048 119.314 43.1856L118.696 42.44L117.389 43.1948ZM26.9187 44.186C26.9924 44.6766 27.3211 44.988 27.8389 45.0579C28.8547 45.1943 28.9356 44.2729 27.952 43.7739C26.952 43.2667 26.7908 43.3311 26.9187 44.186ZM20.0501 44.9334C20.6591 45.2526 21.082 45.2937 21.377 45.0616C21.9198 44.6348 22.6671 45.0375 22.4279 45.6281C22.1995 46.192 26.151 47.8549 27.1385 47.6103C28.0351 47.3881 28.4884 48.0415 27.9022 48.7108C27.3354 49.3581 25.7901 49.0823 23.747 47.9692C22.9242 47.5211 21.8364 47.1544 21.3301 47.1544C20.7991 47.1544 20.4092 46.962 20.4092 46.7001C20.4092 46.4501 20.0064 46.0715 19.5141 45.8592C19.0217 45.6465 18.6189 45.2404 18.6189 44.9564C18.6189 44.3285 18.8885 44.3241 20.0501 44.9334ZM21.2682 50.3436C21.1626 50.6051 20.7648 50.8962 20.3845 50.9905C19.5825 51.189 19.4672 51.843 20.1879 52.1049C20.46 52.204 21.1282 51.8939 21.6724 51.4159C22.2167 50.9379 22.8726 50.5468 23.1301 50.5468C24.6654 50.5468 26.3512 52.3397 25.8889 53.4812C25.6322 54.1153 24.1792 54.6652 23.4559 54.4023C22.5708 54.0807 22.8257 53.2607 23.8107 53.2607C24.3758 53.2607 24.7059 53.069 24.7059 52.7413C24.7059 51.8216 23.6732 51.8105 22.5353 52.7176C21.2714 53.7251 21.2596 53.7272 19.7611 53.2322C17.5924 52.5161 18.0006 49.8683 20.2796 49.8683C21.1457 49.8683 21.4096 49.9952 21.2682 50.3436ZM121.292 50.7866C121.954 52.1385 121.844 52.5822 120.844 52.5822C120.258 52.5822 119.949 52.3926 119.949 52.0337C119.949 51.6666 119.742 51.5469 119.322 51.6717C118.978 51.7742 117.89 52.0802 116.905 52.3519C115.921 52.6233 114.833 52.9551 114.488 53.0894C114.062 53.2553 113.862 53.1769 113.862 52.8441C113.862 52.5402 115.114 51.901 117.174 51.1544C118.995 50.4942 120.566 49.9358 120.665 49.9138C120.763 49.8917 121.046 50.2846 121.292 50.7866ZM100.346 53.8758C101.306 55.9224 101.614 61.5093 100.891 63.7772C100.344 65.4964 99.101 66.316 97.5879 65.9561L96.6752 65.739V58.3055V50.8721L98.1375 51.5791C99.2353 52.1097 99.786 52.6823 100.346 53.8758ZM122.256 55.0326C122.562 55.4471 122.813 56.0466 122.813 56.3648C122.813 57.2074 121.265 58.2265 119.311 58.6709C117.905 58.9901 117.373 58.9654 116.271 58.5294C114.045 57.6481 114.603 56.36 117.807 54.983C119.97 54.0535 121.545 54.0712 122.256 55.0326ZM15.188 55.5021C15.8408 55.7392 15.9636 57.6844 15.3903 58.6997C15.0763 59.2554 15.1877 59.3854 16.196 59.6398C17.5265 59.9753 17.6926 59.822 18.0521 57.9253C18.2376 56.9469 18.4617 56.6531 19.0217 56.6531C19.755 56.6531 19.774 57.1847 19.1191 59.4098C18.9501 59.9844 19.8546 60.3712 21.3888 60.38C22.0398 60.3837 22.2647 60.1001 22.5948 58.8582C22.8959 57.7261 23.1748 57.3316 23.6743 57.3316C24.0446 57.3316 24.3478 57.4636 24.3478 57.6247C24.3478 58.119 23.6346 61.5131 23.5046 61.6359C23.3839 61.7502 13.5499 60.4445 13.3899 60.2928C13.344 60.2497 13.5352 59.3796 13.8145 58.3598C14.0938 57.3397 14.3223 56.2331 14.3223 55.9007C14.3223 55.2303 14.3745 55.2062 15.188 55.5021ZM117.89 55.9655C115.037 57.1925 116.473 58.4823 119.598 57.4988C121.082 57.0317 121.381 56.8003 121.381 56.1171C121.381 55.4458 121.201 55.2975 120.396 55.3036C119.855 55.3077 118.727 55.6055 117.89 55.9655ZM123.529 60.8617C123.529 61.1633 123.779 61.277 124.209 61.1704C125.167 60.9333 126.394 61.6413 126.394 62.4321C126.394 62.8724 126.151 63.0987 125.678 63.0987C125.28 63.0987 124.962 62.8724 124.962 62.5898C124.962 62.2984 124.639 62.081 124.207 62.081C123.684 62.081 123.516 62.2367 123.659 62.5898C123.808 62.9575 123.62 63.0987 122.981 63.0987C122.495 63.0987 122.097 62.9325 122.097 62.7296C122.097 62.4955 121.606 62.43 120.754 62.5508C116.323 63.1791 116.01 63.1869 116.01 62.6668C116.01 62.3164 116.54 62.0905 117.711 61.9408C121.693 61.4323 122.097 61.3329 122.097 60.8638C122.097 60.6002 122.419 60.3848 122.813 60.3848C123.207 60.3848 123.529 60.5995 123.529 60.8617ZM126.394 64.7949C126.394 65.2471 126.155 65.4734 125.678 65.4734C124.894 65.4734 124.691 64.6158 125.409 64.341C126.222 64.0302 126.394 64.1093 126.394 64.7949ZM123.887 65.1341C123.887 65.7695 123.649 65.8126 120.128 65.8126C117.073 65.8126 116.368 65.72 116.368 65.318C116.368 64.9374 117.007 64.7969 119.143 64.7077C120.669 64.6442 122.361 64.5615 122.903 64.5238C123.673 64.4706 123.887 64.6035 123.887 65.1341ZM118.875 67.6557C118.875 67.923 118.543 68.2412 118.138 68.363C117.285 68.6195 117.334 69.6521 118.207 69.8112C118.555 69.8747 119.074 69.4496 119.516 68.7399C120.312 67.4627 121.317 67.1282 122.903 67.6133C123.706 67.8589 123.887 68.1147 123.887 69.0008C123.887 70.2834 123.34 70.9012 122.205 70.9012C121.284 70.9012 121.075 70.0674 121.918 69.7607C122.51 69.5456 122.667 68.1873 122.1 68.1873C121.905 68.1873 121.382 68.7246 120.937 69.3814C119.995 70.7713 118.919 71.1414 117.47 70.5725C115.776 69.9079 115.828 68.1713 117.562 67.5088C118.671 67.0851 118.875 67.1078 118.875 67.6557ZM22.0205 67.7683C22.6879 68.2331 23.2633 69.5147 23.0456 70.0521C22.4684 71.4769 17.848 72.1506 16.1924 71.0515C15.1132 70.3357 15.1787 69.0771 16.3399 68.212C17.0632 67.673 17.7943 67.5101 19.4729 67.5139C20.677 67.5169 21.8235 67.6313 22.0205 67.7683ZM17.2411 68.8267C16.9754 68.9862 16.8158 69.4038 16.8863 69.7546C17.0596 70.6166 20.2445 70.8425 21.3043 70.0677C22.0122 69.5503 22.0122 69.5385 21.3255 69.0354C20.5746 68.4858 18.0256 68.3555 17.2411 68.8267ZM17.2046 73.2759C17.3793 73.2759 17.4212 73.5252 17.2977 73.8302C17.0979 74.3234 17.4133 74.3676 20.1736 74.2302C22.444 74.1172 23.2737 74.1854 23.2737 74.4849C23.2737 74.7316 22.4566 74.9795 21.2148 75.1102C20.0823 75.2289 18.3665 75.4168 17.4012 75.5274C15.897 75.6997 15.6775 75.6516 15.8637 75.1916C15.9833 74.8961 15.9425 74.5731 15.7724 74.4737C15.245 74.1647 15.7967 72.8793 16.3678 73.0869C16.6536 73.1911 17.0302 73.2759 17.2046 73.2759ZM118.159 73.5754C118.159 73.9293 117.839 74.2936 117.442 74.392C116.426 74.6437 116.553 75.3113 117.619 75.3113C118.123 75.3113 118.705 75.0165 118.958 74.6328C119.204 74.2597 119.608 73.9544 119.856 73.9544C120.104 73.9544 120.307 73.8017 120.307 73.6151C120.307 73.1035 121.296 73.2077 122.289 73.8238C123.31 74.4578 123.428 75.4982 122.579 76.3871C121.932 77.0642 120.665 77.2301 120.665 76.6377C120.665 76.4345 121.027 75.9878 121.471 75.6455C122.223 75.0637 122.233 75.0067 121.622 74.7811C121.147 74.606 120.678 74.8394 119.916 75.6299C119.005 76.5753 118.711 76.689 117.706 76.4854C117.069 76.3562 116.346 76.097 116.1 75.9091C115.472 75.4304 115.543 74.2919 116.245 73.5571C117.029 72.7358 118.159 72.7467 118.159 73.5754ZM23.2429 77.4231C22.4322 78.0622 20.3465 78.699 19.0554 78.7017C18.606 78.7027 18.1509 78.9198 18.0439 79.1844C17.7299 79.9596 14.7641 79.8249 14.3061 79.0148C13.9885 78.4523 14.0634 78.3645 14.8579 78.3645C15.3635 78.3645 15.8698 78.1355 15.9829 77.8556C16.2045 77.3084 17.4076 77.1527 17.6046 77.6456C17.794 78.1195 22.1995 77.3244 22.1995 76.8158C22.1995 76.2642 23.3632 76.0095 23.7191 76.4834C23.8659 76.6785 23.6514 77.1012 23.2429 77.4231ZM118.964 79.3846C121.844 80.1004 122.54 80.4556 121.829 80.8467C121.579 80.9841 114.903 79.8035 114.668 79.5803C114.4 79.3262 115.073 78.3411 115.43 78.4656C115.651 78.5429 117.241 78.9565 118.964 79.3846ZM24.7059 81.268C24.7059 81.5371 24.481 81.7569 24.2064 81.7569C22.9041 81.7569 18.977 83.1763 18.977 83.6471C18.977 84.5668 20.0773 84.575 22.4773 83.6729C24.2744 82.9971 24.9136 82.8832 25.1205 83.2007C25.4574 83.717 23.8659 84.5766 21.1253 85.3583C20.0422 85.667 18.9265 86.0018 18.6461 86.1022C18.2942 86.2284 18.2039 86.1178 18.355 85.745C18.4814 85.4329 18.3568 85.1265 18.0593 85.0183C17.4266 84.7883 17.3783 82.9829 17.9923 82.5212C18.2387 82.3363 19.3261 81.992 20.4092 81.7565C21.4923 81.5208 22.7806 81.1334 23.2722 80.8956C24.2633 80.4159 24.7059 80.5309 24.7059 81.268ZM124.536 81.1669C124.625 81.6039 124.417 81.7569 123.735 81.7569C122.859 81.7569 122.502 81.1473 123.064 80.6143C123.495 80.2059 124.411 80.5495 124.536 81.1669ZM117.867 81.4295C119.381 81.8278 121.023 83.4839 121.023 84.6119C121.023 85.4197 119.805 86.167 118.488 86.167C117.454 86.167 115.648 85.3331 114.282 84.2249C113.186 83.336 113.126 83.1868 113.525 82.3563C113.92 81.536 114.213 81.4014 116.189 81.131C116.386 81.1042 117.141 81.2385 117.867 81.4295ZM114.936 82.9195C114.936 83.773 116.73 84.81 118.207 84.81C119.566 84.81 119.911 84.4311 119.317 83.5888C118.539 82.4846 114.936 81.9343 114.936 82.9195ZM27.0078 87.3784C28.1973 88.5057 27.5793 89.4661 24.4449 91.3591C22.6646 92.4341 21.8561 92.4982 20.7529 91.6522C19.6444 90.8014 20.0125 89.5961 21.7358 88.4342L23.081 87.5274L23.7592 88.7978C24.6525 90.4706 24.5949 90.4384 25.4198 89.7311C26.4067 88.885 26.3275 88.2024 25.243 88.2024C24.5866 88.2024 24.3478 88.0216 24.3478 87.524C24.3478 86.9998 24.5866 86.8455 25.3966 86.8455C25.973 86.8455 26.6981 87.0853 27.0078 87.3784ZM115.569 88.3354C118.48 89.4987 119.626 90.2379 118.517 90.2379C118.32 90.2379 118.159 90.6229 118.159 91.0931C118.159 92.4185 116.72 92.8951 115.016 92.1346C112.829 91.1586 110.271 89.5109 110.47 89.2059C110.572 89.0495 111.834 89.4515 113.273 90.0995C114.773 90.7742 116.143 91.1857 116.481 91.0629C117.511 90.6887 116.587 89.7911 113.912 88.5644C112.524 87.9283 111.477 87.2736 111.584 87.1091C111.691 86.9442 111.888 86.856 112.021 86.9123C112.154 86.969 113.751 87.6095 115.569 88.3354ZM21.9005 89.6391C21.2016 90.3013 21.4315 90.9164 22.3785 90.9164C23.3796 90.9164 23.4681 90.6786 22.7842 89.8257C22.4294 89.3827 22.2181 89.3382 21.9005 89.6391ZM110.41 92.7842C111.888 93.3691 112.345 94.435 111.779 95.9731C111.417 96.9576 111.719 97.3619 112.817 97.3619C113.288 97.3619 113.225 95.7471 112.748 95.5969C112.497 95.5175 112.558 95.3085 112.913 95.0293C113.395 94.6507 113.577 94.7447 114.178 95.682C114.753 96.5776 114.804 96.907 114.461 97.4932C114.23 97.8874 114.041 98.2358 114.04 98.2674C114.04 98.2989 113.612 98.4261 113.09 98.5503C112.328 98.7314 111.869 98.5476 110.763 97.6153C110.006 96.9769 108.745 96.0484 107.96 95.5514C106.753 94.7864 106.718 94.4363 107.864 94.608C108.012 94.63 108.133 94.2969 108.133 93.8678C108.133 93.4386 108.326 92.9043 108.563 92.6804C109.084 92.1861 108.87 92.1743 110.41 92.7842ZM31.003 94.1368C31.8513 95.3631 31.4384 96.3374 29.1512 98.5045C26.6587 100.866 24.8133 101.485 23.0108 100.566C22.2099 100.157 21.8414 99.7224 21.8414 99.1857C21.8414 98.2989 22.907 96.005 23.3188 96.005C23.8344 96.005 24.0689 96.7442 23.6722 97.12C23.1057 97.6567 23.1791 98.9007 23.8061 99.3936C25.577 100.786 30.7466 96.8069 29.6617 94.8865C29.3119 94.2674 28.9184 94.2545 27.4808 94.8156C27.0418 94.9866 26.8542 94.9018 26.8542 94.5317C26.8542 93.8237 27.8521 93.3141 29.2629 93.3012C30.1064 93.2938 30.5762 93.5194 31.003 94.1368ZM109.018 93.9845C108.809 94.3047 109.718 96.005 110.098 96.005C110.185 96.005 110.434 95.6898 110.652 95.3048C111.279 94.1934 109.71 92.9247 109.018 93.9845ZM110.181 101.37C111.603 102.577 112.682 103.695 112.579 103.853C112.284 104.305 104.595 97.9895 104.806 97.4688C105 96.9915 105.172 97.1163 110.181 101.37ZM42.4959 102.812C44.6382 103.582 46.0994 105.9 45.6088 107.752C45.433 108.415 45.2977 108.467 44.5637 108.15C43.888 107.858 43.7595 107.601 43.9167 106.856C44.1899 105.561 43.5475 104.608 42.0963 104.155C40.113 103.534 38.1957 104.739 37.0567 107.322C36.3893 108.835 36.5848 109.644 37.8444 110.583C38.8086 111.302 40.9742 111.516 41.3562 110.931C41.5019 110.707 41.836 110.721 42.3308 110.972L43.0838 111.354L42.227 111.966C40.948 112.88 39.7292 112.983 38.133 112.311C35.898 111.371 35.2947 110.518 35.2807 108.279C35.2703 106.651 35.4347 106.146 36.3398 105.025C38.2304 102.683 40.1818 101.982 42.4959 102.812ZM100.381 106.976C101.001 107.599 102.172 108.805 102.984 109.656C104.458 111.202 104.458 111.203 103.634 111.558C103.029 111.82 102.763 111.806 102.635 111.508C102.539 111.284 102.448 111.439 102.432 111.852C102.398 112.772 100.125 114.324 98.8121 114.324C97.5517 114.324 97.0332 113.731 97.0332 112.29C97.0332 111.314 97.319 110.805 98.4565 109.753C99.5479 108.743 99.7881 108.332 99.4866 107.988C98.623 107.002 96.6752 107.991 96.6752 109.416C96.6752 109.831 96.4446 110.351 96.1632 110.573C95.7536 110.895 95.572 110.836 95.2569 110.278C94.5025 108.942 96.9269 106.048 98.9488 105.87C99.1161 105.855 99.7609 106.353 100.381 106.976ZM85.0813 110.261C85.2811 111.445 85.9335 112.535 85.9335 111.685C85.9335 110.998 87.7818 110.558 89.0282 110.947C90.459 111.395 91.1722 112.528 91.4945 114.865C91.7072 116.407 91.6445 116.601 90.6448 117.502C89.7787 118.283 89.3186 118.447 88.3117 118.336C87.6221 118.26 87.1262 118.302 87.2096 118.43C87.3732 118.681 86.2812 119.177 86.0495 118.957C85.9729 118.884 85.2732 116.713 84.4945 114.132C83.4171 110.559 83.1847 109.375 83.5216 109.173C84.4243 108.63 84.8568 108.931 85.0813 110.261ZM80.5627 109.886C80.5627 110.057 80.6604 110.439 80.78 110.734C80.944 111.139 80.7678 111.271 80.0639 111.271C79.307 111.271 79.1304 111.11 79.1304 110.423C79.1304 109.801 79.3213 109.575 79.8465 109.575C80.2404 109.575 80.5627 109.715 80.5627 109.886ZM99.4412 110.687C98.0312 112.232 98.1754 112.87 99.8819 112.637C101.07 112.475 101.745 110.663 100.873 109.977C100.533 109.71 100.168 109.891 99.4412 110.687ZM51.8462 110.204C52.2175 110.427 52.1634 110.839 51.5776 112.246C50.7015 114.352 50.641 115.778 51.4026 116.376C52.1545 116.968 53.8388 116.403 54.0035 115.504C54.0711 115.135 54.3662 114.031 54.6591 113.052C55.1138 111.531 55.3183 111.271 56.0612 111.271C56.5396 111.271 56.9309 111.309 56.9309 111.356C56.9309 111.619 54.7826 118.508 54.6666 118.618C54.2863 118.978 53.3303 118.254 53.5301 117.757C53.707 117.317 53.6612 117.292 53.2999 117.632C52.6511 118.242 51.5533 118.153 50.2174 117.381C48.8357 116.583 48.8149 116.339 49.8192 112.713C50.5722 109.994 50.8748 109.62 51.8462 110.204ZM70.5371 110.762C70.5371 111.45 70.3606 111.61 69.6036 111.61C68.8997 111.61 68.7235 111.478 68.8875 111.073C69.0071 110.778 69.1049 110.397 69.1049 110.225C69.1049 110.054 69.4271 109.914 69.821 109.914C70.3462 109.914 70.5371 110.14 70.5371 110.762ZM76.1224 112.628C76.3985 112.628 76.624 112.933 76.624 113.306C76.624 113.708 76.3852 113.985 76.0383 113.985C75.5474 113.985 75.4894 114.24 75.6802 115.559C75.8055 116.424 75.9079 117.493 75.9079 117.933C75.9079 118.391 76.1213 118.734 76.4067 118.734C77.0924 118.734 77.4701 119.803 76.9047 120.144C76.2986 120.508 76.1002 120.499 75.0801 120.058C74.3067 119.725 74.1961 119.41 73.9991 116.99C73.8581 115.259 73.5838 114.109 73.2325 113.776C72.5368 113.117 72.5325 112.628 73.2225 112.628C73.5537 112.628 73.7596 112.309 73.7596 111.797C73.7596 111.339 74.0414 110.814 74.3862 110.63C74.9143 110.346 75.0608 110.477 75.3168 111.461C75.484 112.103 75.8467 112.628 76.1224 112.628ZM63.376 112.696C63.376 113.012 63.4715 113.012 63.8056 112.696C64.3882 112.144 65.3438 112.183 65.867 112.78C66.4864 113.487 65.8877 114.154 64.6335 114.154C63.6223 114.154 63.55 114.247 63.3108 115.851C62.7726 119.459 62.6656 119.752 61.8861 119.752C61.2 119.752 61.1614 119.614 61.3655 117.886C61.4865 116.86 61.6849 115.181 61.8059 114.154C61.9863 112.626 62.1485 112.288 62.701 112.288C63.0723 112.288 63.376 112.472 63.376 112.696ZM80.9272 112.543C80.9307 112.683 81.1696 114.248 81.4578 116.02C81.746 117.793 81.9849 119.357 81.9884 119.497C81.992 119.637 81.6107 119.752 81.1409 119.752C80.3715 119.752 80.2655 119.568 80.0667 117.886C79.9457 116.86 79.7474 115.181 79.6263 114.154C79.4208 112.415 79.4573 112.288 80.1634 112.288C80.5798 112.288 80.9236 112.403 80.9272 112.543ZM86.7212 112.696C85.728 113.637 86.4423 116.822 87.7338 117.211C88.9516 117.577 90.3179 116.169 90.0282 114.848C89.5416 112.628 87.9118 111.568 86.7212 112.696ZM70.5371 116.529V120.43H69.6419H68.7468V116.529V112.628H69.6419H70.5371V116.529Z" fill="white"/>
</svg>
